<svg xmlns="http://www.w3.org/2000/svg" viewBox="0 0 800 450" role="img" aria-labelledby="title desc"><title id="title">Capuchino</title><desc id="desc">Ilustración de una taza de capuchino con espuma</desc><defs><linearGradient id="bg" x1="0" y1="0" x2="1" y2="1"><stop stop-color="#f4e6ce"/><stop offset="1" stop-color="#cfa577"/></linearGradient></defs><rect width="800" height="450" fill="url(#bg)"/><ellipse cx="400" cy="352" rx="235" ry="35" fill="#4e3424" opacity=".18"/><path d="M235 150h310v125c0 72-60 115-155 115s-155-43-155-115V150Z" fill="#fdf8ef" stroke="#9c744f" stroke-width="10"/><ellipse cx="390" cy="150" rx="155" ry="38" fill="#fdf8ef" stroke="#9c744f" stroke-width="10"/><ellipse cx="390" cy="153" rx="133" ry="26" fill="#d7b58c"/><path d="M390 169c-52-27-89-4-73 31 15 31 73 58 73 58s58-27 73-58c16-35-21-58-73-31Z" fill="#fff4df"/><path d="M545 185h35c58 0 74 87 18 112-18 8-38 5-53 2" fill="none" stroke="#fdf8ef" stroke-width="28" stroke-linecap="round"/><g fill="none" stroke="#fff4df" stroke-width="10" stroke-linecap="round" opacity=".85"><path d="M350 105c-20-27 20-41 0-69"/><path d="M430 105c-20-27 20-41 0-69"/></g></svg>
